# xmcd
#
# Track frame offsets:
# 150
# 27628
# 49128
# 71880
# 98255
# 121124
# 143959
# 160170
# 183631
# 207488
# 249617
#
# Disc length: 3474 seconds
#
#
# Revision: 0
# Processed by: cddbd v1.5.1PL2 Copyright (c) Steve Scherf et al.
# Submitted via: FreeRIP 2.944 
#
DISCID=a00d900b
DTITLE=Various Artist - KLON FM 88.1 Presents Nothin' But The Blues
DYEAR=1900
DGENRE=Blues
TTITLE0=01- I'm Gonna Take It All Back
TTITLE1=02 - Texas Millionaire
TTITLE2=03 - Johnny B
TTITLE3=04 - Won't be Gettin None Tonight
TTITLE4=05 - Born Under a Bad Sign
TTITLE5=06 -Don't Wake Me
TTITLE6=07 - Dangerous
TTITLE7=08 - Respirator Blues
TTITLE8=09 -I'm Free
TTITLE9=10 - Hold That Train
TTITLE10=11 Program Data (not a music track)
EXTD=
EXTT0=
EXTT1=
EXTT2=
EXTT3=
EXTT4=
EXTT5=
EXTT6=
EXTT7=
EXTT8=
EXTT9=
EXTT10=
PLAYORDER=
